<svg fill="none" height="24" viewBox="0 0 24 24" width="24" xmlns="http://www.w3.org/2000/svg"><g stroke="#fff" stroke-linecap="round" stroke-linejoin="round" stroke-width="1.5"><path d="m3.16992 7.43945 8.82998 5.10995 8.77-5.07998"/><path d="m11.9999 21.6091v-9.07"/><path d="m9.9306 2.48-5.33999 2.97003c-1.21.67-2.19999 2.34998-2.19999 3.72998v5.64999c0 1.38.98999 3.06 2.19999 3.73l5.33999 2.97c1.14.63 3.01.63 4.15 0l5.34-2.97c1.21-.67 2.2-2.35 2.2-3.73v-5.64999c0-1.38-.99-3.05998-2.2-3.72998l-5.34-2.97003c-1.15-.64-3.01-.64-4.15 0z"/><path d="m16.9998 13.2396v-3.65995l-9.49003-5.48004"/></g></svg>