<svg fill="none" height="294" viewBox="0 0 368 294" width="368" xmlns="http://www.w3.org/2000/svg"><path clip-rule="evenodd" d="m92.7359 196.98h133.9521c.758 0 1.497-.082 2.208-.237.711.155 1.45.237 2.208.237h76.544c5.691 0 10.304-4.607 10.304-10.29s-4.613-10.29-10.304-10.29h-8.832c-5.691 0-10.304-4.607-10.304-10.29s4.613-10.29 10.304-10.29h27.968c5.691 0 10.304-4.607 10.304-10.29s-4.613-10.29-10.304-10.29h-32.384c5.691 0 10.304-4.607 10.304-10.29s-4.613-10.29-10.304-10.29h-94.208c5.691 0 10.304-4.607 10.304-10.29 0-5.6829-4.613-10.2899-10.304-10.2899h-83.904c-5.691 0-10.304 4.607-10.304 10.2899 0 5.683 4.613 10.29 10.304 10.29h-58.8801c-5.6907 0-10.304 4.607-10.304 10.29s4.6133 10.29 10.304 10.29h36.8c5.6908 0 10.3041 4.607 10.3041 10.29s-4.6133 10.29-10.3041 10.29h-58.88c-5.6907 0-10.304 4.607-10.304 10.29s4.6133 10.29 10.304 10.29h57.408c-5.6907 0-10.304 4.607-10.304 10.29s4.6133 10.29 10.304 10.29zm239.9361 0c5.691 0 10.304-4.607 10.304-10.29s-4.613-10.29-10.304-10.29-10.304 4.607-10.304 10.29 4.613 10.29 10.304 10.29z" fill="#ffc79a" fill-rule="evenodd"/><path d="m245.824 217.56h33.014m-184.6301 0h31.5801zm-18.9476 0h10.1156zm210.4957 0h4.228z" stroke="#f37b1c" stroke-linecap="round" stroke-linejoin="round" stroke-width="2.5"/><path d="m144.256 63.6551 16.339 18.3061m60.352-18.3061-16.339 18.3061zm-38.419-6.325v24.6311z" stroke="#ff811e" stroke-linecap="round" stroke-linejoin="round" stroke-width="2.5"/><path clip-rule="evenodd" d="m136.598 104.37h92.157l-8.253 12.363 11.004 8.241h-97.659l12.379-8.241z" fill="#ffeee1" fill-rule="evenodd"/><rect fill="#fff" height="110.25" rx="2" width="104.512" x="131.008" y="122.01"/><path clip-rule="evenodd" d="m137.758 182.289v-50.51c0-2.081 1.707-3.768 3.814-3.768l89.758 94.201c0 2.774-2.224 5.024-4.968 5.024h-83.637c-2.743 0-4.967-2.25-4.967-5.024v-18.772-5.093zm0 10.906v-5.657z" fill="#ffeee1" fill-rule="evenodd"/><g stroke="#f37b1c" stroke-width="2.5"><path d="m132.48 182.961v-55.24c0-2.275 1.87-4.12 4.177-4.12h95.568c1.502 0 2.72 1.23 2.72 2.747v100.273c0 3.035-2.436 5.495-5.44 5.495h-91.585c-3.004 0-5.44-2.46-5.44-5.495v-20.529-5.569m0-5.636v-6.186" stroke-linecap="round"/><path d="m135.223 123.601v-16.484c0-1.517 1.105-2.747 2.468-2.747h91.346c1.364 0 2.469 1.23 2.469 2.747v16.484"/><g stroke-linecap="round"><path d="m160.669 152.446c2.659 0 4.814-2.152 4.814-4.807 0-2.656-2.155-4.808-4.814-4.808s-4.814 2.152-4.814 4.808c0 2.655 2.155 4.807 4.814 4.807z" fill="#ffeee1"/><path d="m206.06 152.446c2.658 0 4.814-2.152 4.814-4.807 0-2.656-2.156-4.808-4.814-4.808-2.659 0-4.815 2.152-4.815 4.808 0 2.655 2.156 4.807 4.815 4.807z" fill="#ffeee1"/><path d="m205.372 152.446c0 12.138-9.853 21.978-22.008 21.978-12.154 0-22.007-9.84-22.007-21.978"/><path d="m136.682 105.739 9.683 9.546c.579.57.585 1.501.014 2.079-.099.1-.212.185-.335.253l-10.821 5.984"/><path d="m230.28 105.839-9.266 9.438c-.57.58-.56 1.51.02 2.079.097.095.207.176.326.241l11.021 6.004"/></g></g></svg>