<svg fill="none" height="28" viewBox="0 0 29 28" width="29" xmlns="http://www.w3.org/2000/svg"><path d="m27.948 24.6689.0024.0233.0047.0231c.0286.1411.0449.2793.0449.4179 0 1.0928-.841 1.9394-1.8333 1.9394h-11.6667-11.66667c-.99231 0-1.83333-.8466-1.83333-1.9394 0-.1386.01631-.2768.04489-.4179l.00466-.0231.00248-.0233 2.2785-21.4374.0028-.02635v-.0265c0-1.0928.84103-1.93939 1.83334-1.93939h9.33333 9.3333c.9923 0 1.8334.84659 1.8334 1.93939v.0265l.0028.02635zm-7.1147-16.61146v-1.01512c.6986-.39719 1.1667-1.16104 1.1667-2.03412 0-1.26488-.9871-2.32955-2.25-2.32955s-2.25 1.06467-2.25 2.32955v3.04924c0 1.76241-1.3672 3.15906-3 3.15906s-3-1.39665-3-3.15906v-3.04924c0-1.26488-.9871-2.32955-2.25-2.32955-1.26286 0-2.25 1.06467-2.25 2.32955 0 .87308.46806 1.63693 1.16667 2.03412v1.01512c0 3.61766 2.81993 6.59846 6.33333 6.59846s6.3333-2.9808 6.3333-6.59846z" stroke="#9b9b9b"/></svg>