<svg fill="none" height="29" viewBox="0 0 30 29" width="30" xmlns="http://www.w3.org/2000/svg"><path d="m29.2286 25.781-2.3715-22.31235c0-1.40278-1.0868-2.538962-2.4286-2.538962h-9.7142-9.71433c-1.34179 0-2.42858 1.136182-2.42858 2.538962l-2.371496 22.31235c-.035215.174-.057072.353-.057072.5383 0 1.4028 1.086788 2.539 2.428568 2.539h12.14291 12.1428c1.3418 0 2.4286-1.1362 2.4286-2.539 0-.1853-.0219-.3643-.0571-.5383zm-8.4429-18.6207v1.38627c0 3.49993-2.7237 6.34743-6.0714 6.34743-3.3478 0-6.07148-2.8475-6.07148-6.34743v-1.38627c-.7055-.26152-1.21428-.95973-1.21428-1.78743 0-1.05113.816-1.90422 1.82143-1.90422s1.82143.85309 1.82143 1.90422v3.1737c0 2.09973 1.6344 3.80843 3.6429 3.80843 2.0084 0 3.6428-1.7087 3.6428-3.80843v-3.1737c0-1.05113.816-1.90422 1.8214-1.90422 1.0055 0 1.8215.85309 1.8215 1.90422 0 .8277-.5088 1.52591-1.2143 1.78743z" fill="#db3022"/></svg>