<svg fill="none" height="25" viewBox="0 0 25 25" width="25" xmlns="http://www.w3.org/2000/svg"><path clip-rule="evenodd" d="m7.2713 19.2723c-1.32 0-2.388 1.08-2.388 2.4s1.068 2.4 2.388 2.4 2.4-1.08 2.4-2.4-1.08-2.4-2.4-2.4zm-7.2000109-19.2000344v2.4000044h2.4000009l4.32 9.10803-1.62 2.94c-.192.336-.3.732-.3 1.152 0 1.32 1.08 2.4 2.4 2.4h14.40001v-2.4h-13.89601c-.168 0-.3-.132-.3-.3l.036-.144 1.08-1.956h8.94001c.9 0 1.692-.492 2.1-1.236l4.296-7.78803c.2014-.37255.1922-.82352-.0242-1.18754-.2165-.36401-.6083-.58749-1.0318-.58846h-17.74801l-1.128-2.4000044zm19.2000109 19.2000344c-1.32 0-2.388 1.08-2.388 2.4s1.068 2.4 2.388 2.4 2.4-1.08 2.4-2.4-1.08-2.4-2.4-2.4z" fill="#db3022" fill-rule="evenodd"/></svg>