<svg fill="none" height="20" viewBox="0 0 20 20" width="20" xmlns="http://www.w3.org/2000/svg"><g stroke="#f37b1c" stroke-linecap="round" stroke-linejoin="round"><path clip-rule="evenodd" d="m16.2378 16.5634c-2.6871 2.6874-6.66612 3.268-9.9223 1.7622-.4807-.1936-.8748-.35-1.24946-.35-1.04356.0062-2.3425 1.0181-3.0176.3438-.67509-.6752.33755-1.9752.33755-3.025 0-.3747-.15022-.7618-.34373-1.2434-1.506597-3.2557-.92517-7.23602 1.76196-9.92256 3.43026-3.431522 9.00328-3.431522 12.43358-.00088 3.4364 3.43682 3.4303 9.00524 0 12.43584z" fill-rule="evenodd" stroke-width="1.5"/><g stroke-width="2"><path d="m13.484 10.7101h.0079"/><path d="m9.95911 10.7101h.00791"/><path d="m6.4342 10.7101h.00792"/></g></g></svg>