<svg fill="none" height="16" viewBox="0 0 16 16" width="16" xmlns="http://www.w3.org/2000/svg"><path d="m3.88204 6.234c-.41421 0-.75.33579-.75.75s.33579.75.75.75zm5.765 1.5c.41426 0 .74996-.33579.74996-.75s-.3357-.75-.74996-.75zm-5.047.608c-.41421 0-.75.33579-.75.75s.33579.75.75.75zm4.326 1.5c.41422 0 .75-.33579.75-.75s-.33578-.75-.75-.75zm-5.5307-7.06973c-.40854.06832-.68434.45489-.61602.86343s.45489.68435.86343.61603zm.6237.69873-.00154.75h.00154zm5.5 0 .00566-.75h-.00566zm3.01596 3.061-.75-.00545v.00545zm0 3.716h-.75v.0009zm-.7864.418c-.0724.4079.1996.7971.6075.8695.4078.0723.7971-.1997.8694-.6075zm-8.0992-6.41542c.40791-.07199.68022-.46103.60823-.86894-.072-.40791-.46104-.68022-.86894-.60822zm-2.64936 2.28042h.75002l-.00003-.00404zm0 8.469h-.749995c0 .2663.14117.5126.370917.6471.229747.1346.513628.1373.745868.0071zm3.016-1.691v-.75c-.12845 0-.25474.033-.36678.0958zm5.5 0v.75h.00493zm3.70386-2.3801c.0712-.408-.2019-.7965-.6099-.8677-.4081-.07125-.7966.2018-.8678.6099zm-10.43982-7.54511c-.0708.40812.20264.79637.61076.86717.40812.07081.79636-.20264.86717-.61075zm3.70696-2.38379v-.750012l-.0043.000024zm5.49996 0 .0064-.75h-.0064zm3.013 3.061-.75-.00546v.00546zm0 3.716h-.75l.0001.00502zm-2.6493 2.2844c-.4079.072-.6802.461-.6082.869.072.4079.461.6802.8689.6082zm-8.46866-2.3274h5.765v-1.5h-5.765zm.718 2.108h4.326v-1.5h-4.326zm-.95729-5.59027c.12384-.02071.24919-.03099.37475-.03073l.00309-1.5c-.20948-.00043-.41863.01672-.62525.05127zm.37629-.03073h5.5v-1.5h-5.5zm5.49435-.00002c1.26391.00953 2.28091 1.04167 2.27171 2.30557l1.4999.0109c.0152-2.09215-1.6682-3.80065-3.7603-3.81643zm2.27161 2.31102v3.716h1.5v-3.716zm0 3.7169c.0002.1398-.012.2794-.0364.4171l1.4769.262c.0399-.2248.0598-.4526.0595-.6809zm-8.39631-7.47548c-1.82294.32174-3.148597 1.91053-3.138634 3.76162l1.499974-.00808c-.00603-1.1202.79621-2.08167 1.89937-2.27638zm-3.138645 3.75758v8.469h1.499995v-8.469zm1.116785 9.1232 3.016-1.691-.73357-1.3084-3.016005 1.691zm2.64921-1.5952h5.5v-1.5h-5.5zm5.50493 0c1.82753-.012 3.38473-1.3297 3.69893-3.1301l-1.4777-.2578c-.1895 1.0859-1.1288 1.8807-2.23108 1.8879zm-5.26296-10.41879c.1887-1.08765 1.12947-1.88388 2.23334-1.89022l-.00861-1.499978c-1.83011.010512-3.38981 1.330578-3.70266 3.133778zm2.22903-1.89021h5.49996v-1.5h-5.49996zm5.49356-.00003c1.2631.01078 2.2787 1.04255 2.2695 2.30557l1.4999.01092c.0152-2.0907-1.6659-3.798601-3.7566-3.816433zm2.2694 2.31103v3.716h1.5v-3.716zm.0001 3.72102c.0075 1.12134-.7951 2.0845-1.8994 2.27938l.2607 1.4772c1.8248-.3221 3.151-1.91366 3.1386-3.76662z" fill="#f37b1c"/></svg>