<svg fill="none" height="292" viewBox="0 0 366 292" width="366" xmlns="http://www.w3.org/2000/svg"><g clip-rule="evenodd" fill-rule="evenodd"><path d="m92.232 195.64h133.224c.754 0 1.489-.081 2.196-.235.707.154 1.442.235 2.196.235h76.128c5.66 0 10.248-4.575 10.248-10.22 0-5.644-4.588-10.22-10.248-10.22h-8.784c-5.66 0-10.248-4.575-10.248-10.22 0-5.644 4.588-10.22 10.248-10.22h27.816c5.66 0 10.248-4.575 10.248-10.22 0-5.644-4.588-10.22-10.248-10.22h-32.208c5.66 0 10.248-4.575 10.248-10.22 0-5.644-4.588-10.22-10.248-10.22h-93.696c5.66 0 10.248-4.575 10.248-10.22 0-5.6439-4.588-10.2196-10.248-10.2196h-83.448c-5.66 0-10.248 4.5757-10.248 10.2196 0 5.645 4.588 10.22 10.248 10.22h-58.56c-5.6598 0-10.248 4.576-10.248 10.22 0 5.645 4.5882 10.22 10.248 10.22h36.6c5.6598 0 10.248 4.576 10.248 10.22 0 5.645-4.5882 10.22-10.248 10.22h-58.56c-5.6598 0-10.248 4.576-10.248 10.22 0 5.645 4.5882 10.22 10.248 10.22h57.096c-5.6598 0-10.248 4.576-10.248 10.22 0 5.645 4.5882 10.22 10.248 10.22zm238.632 0c5.66 0 10.248-4.575 10.248-10.22 0-5.644-4.588-10.22-10.248-10.22s-10.248 4.576-10.248 10.22c0 5.645 4.588 10.22 10.248 10.22z" fill="#ffc79a"/><path d="m165.606 163.968c-.115.807-.174 1.633-.174 2.472 0 9.676 7.865 17.52 17.568 17.52s17.568-7.844 17.568-17.52c0-.839-.059-1.665-.174-2.472h42.63v38.972c0 2.419-1.966 4.38-4.392 4.38h-111.264c-2.426 0-4.392-1.961-4.392-4.38v-38.972z" fill="#fff"/><path d="m202.032 163.52c0 10.482-8.521 18.98-19.032 18.98s-19.032-8.498-19.032-18.98c0-.34.009-.677.027-1.013h-41.019l13.996-41.271c.604-1.779 2.278-2.976 4.161-2.976h83.734c1.883 0 3.557 1.197 4.161 2.976l13.996 41.271h-41.019c.018.336.027.673.027 1.013z" fill="#fff"/><path d="m199.247 164.914c0 8.1-7.274 16.126-16.247 16.126s-16.247-8.026-16.247-16.126c0-.262.008-1.983.023-2.242h-30.624l11.948-28.971c.515-1.375 1.944-2.301 3.552-2.301h62.696c1.608 0 3.037.926 3.552 2.301l11.948 28.971h-30.624c.015.259.023 1.98.023 2.242z" fill="#ffe5d1"/><path d="m124.806 162.808v38.672c0 1.411 1.147 2.555 2.562 2.555h111.264c1.415 0 2.562-1.144 2.562-2.555v-38.672l-13.9-40.987c-.352-1.037-1.328-1.736-2.427-1.736h-83.734c-1.099 0-2.075.699-2.427 1.736z" stroke="#f37b1c" stroke-width="2.5"/></g><g stroke="#f37b1c" stroke-linecap="round" stroke-linejoin="round" stroke-width="2.5"><path d="m143.472 162.06h18.659c2.746 0 2.746 1.925 2.746 2.92 0 9.676 8.047 17.52 17.973 17.52 9.925 0 17.972-7.844 17.972-17.52 0-.995 0-2.92 2.747-2.92h36.527m-107.496 0h3.552z"/><path d="m219.746 85.1218-16.25 18.1812m-21.814-24.4632v24.4632zm-38.21 6.282 16.25 18.1812z"/></g></svg>