<svg width="22" height="22" viewBox="0 0 22 22" fill="none" xmlns="http://www.w3.org/2000/svg">
<rect width="22" height="22" rx="5" fill="#00967D"/>
<path d="M11 14.0854C10.2928 14.0854 9.61448 13.822 9.11438 13.3532C8.61428 12.8843 8.33333 12.2484 8.33333 11.5854C8.33333 10.9223 8.61428 10.2865 9.11438 9.81762C9.61448 9.34878 10.2928 9.08539 11 9.08539V14.0854Z" fill="#FDFDFD"/>
<path fill-rule="evenodd" clip-rule="evenodd" d="M11.0003 5.33533C14.6823 5.33533 17.667 8.13345 17.667 11.5853C17.667 15.0372 14.6823 17.8353 11.0003 17.8353C7.31833 17.8353 4.33366 15.0372 4.33366 11.5853C4.33366 8.13345 7.31833 5.33533 11.0003 5.33533ZM11.0003 6.58533V9.08533C11.7076 9.08533 12.3858 9.34872 12.8859 9.81756C13.386 10.2864 13.667 10.9223 13.667 11.5853C13.667 12.2484 13.386 12.8843 12.8859 13.3531C12.3858 13.8219 11.7076 14.0853 11.0003 14.0853V16.5853C9.58584 16.5853 8.22928 16.0585 7.22909 15.1209C6.22889 14.1832 5.66699 12.9114 5.66699 11.5853C5.66699 10.2592 6.22889 8.98748 7.22909 8.04979C8.22928 7.11211 9.58584 6.58533 11.0003 6.58533Z" fill="#FDFDFD"/>
</svg>
