<svg fill="none" height="20" viewBox="0 0 19 20" width="19" xmlns="http://www.w3.org/2000/svg"><g stroke="#920000" stroke-linecap="round" stroke-linejoin="round" stroke-width="1.5"><path d="m16.325 7.46875s-.543 6.73495-.858 9.57195c-.15 1.355-.987 2.1491-2.358 2.1741-2.609.047-5.22097.05-7.82897-.005-1.319-.027-2.142-.831-2.289-2.162-.317-2.862-.857-9.57905-.857-9.57905"/><path d="m17.7082 4.24023h-16.957956"/><path d="m14.4406 4.23998c-.785 0-1.461-.555-1.615-1.324l-.243-1.216c-.15-.561-.658-.949003-1.237-.949003h-4.23302c-.579 0-1.087.388003-1.237.949003l-.243 1.216c-.154.769-.83 1.324-1.615 1.324"/></g></svg>