<svg fill="none" height="22" viewBox="0 0 22 22" width="22" xmlns="http://www.w3.org/2000/svg"><g stroke="#fff" stroke-linecap="round" stroke-linejoin="round" stroke-width="1.5"><path d="m15.5833 12.2837v2.75c0 3.6666-1.4667 5.1333-5.1333 5.1333h-3.48335c-3.66667 0-5.13334-1.4667-5.13334-5.1333v-3.4834c0-3.66664 1.46667-5.13331 5.13334-5.13331h2.75"/><path d="m15.583 12.2837h-2.9334c-2.2 0-2.93329-.7334-2.93329-2.93337v-2.93334z"/><path d="m10.633 1.83301h3.6667"/><path d="m6.41669 4.58301c0-1.52167 1.22833-2.75 2.75-2.75h2.40171"/><path d="m20.1671 7.33301v5.67419c0 1.4208-1.155 2.5758-2.5759 2.5758"/><path d="m20.1667 7.33301h-2.75c-2.0625 0-2.75-.6875-2.75-2.75v-2.75z"/></g></svg>