<svg fill="none" height="21" viewBox="0 0 21 21" width="21" xmlns="http://www.w3.org/2000/svg"><g stroke="#920000" stroke-linecap="round" stroke-linejoin="round" stroke-width="1.5"><path d="m9.49224.789062h-3.739c-3.075 0-5.002996 2.176998-5.002996 5.258998v8.31404c0 3.082 1.918996 5.259 5.002996 5.259h8.82396c3.085 0 5.004-2.177 5.004-5.259v-4.028"/><path clip-rule="evenodd" d="m6.82763 8.9205 7.47297-7.473c.931-.93 2.44-.93 3.371 0l1.217 1.217c.931.931.931 2.441 0 3.371l-7.509 7.509c-.407.407-.959.636-1.53497.636h-3.746l.094-3.78c.014-.556.241-1.086.635-1.48z" fill-rule="evenodd"/><path d="m13.165 2.60254 4.566 4.566"/></g></svg>