<svg width="28" height="24" viewBox="0 0 28 24" fill="none" xmlns="http://www.w3.org/2000/svg">
<path d="M27.6821 11.0426L16.2858 0.789769C16.2712 0.776572 16.2561 0.763766 16.2406 0.751351C14.9962 -0.247281 13.1158 -0.250849 11.8666 0.74309C11.8511 0.755457 11.836 0.768214 11.8213 0.781313L0.321119 11.0396C-0.106428 11.4211 -0.107139 12.04 0.319587 12.4222C0.746368 12.8043 1.43888 12.8049 1.86637 12.4235L2.73437 11.6492V20.0897C2.73437 22.2459 4.69699 24 7.10936 24H11.0469C11.6509 24 12.1406 23.5623 12.1406 23.0224V15.0553H15.9687V23.0224C15.9687 23.5623 16.4584 24 17.0625 24H20.8906C23.303 24 25.2656 22.2459 25.2656 20.0897C25.2656 19.5498 24.7759 19.1122 24.1719 19.1122C23.5678 19.1122 23.0781 19.5498 23.0781 20.0897C23.0781 21.1678 22.0968 22.0449 20.8906 22.0449H18.1562V14.0777C18.1562 13.5378 17.6666 13.1001 17.0625 13.1001H11.0469C10.4428 13.1001 9.95311 13.5378 9.95311 14.0777V22.0449H7.10936C5.90318 22.0449 4.92187 21.1678 4.92187 20.0897V9.72755C4.92187 9.71777 4.9217 9.70805 4.92137 9.69837L13.3408 2.18818C13.7506 1.87716 14.3516 1.87834 14.7598 2.19086L23.0781 9.67461V15.2019C23.0781 15.7418 23.5678 16.1795 24.1719 16.1795C24.7759 16.1795 25.2656 15.7418 25.2656 15.2019V11.6426L26.1303 12.4206C26.3441 12.6129 26.6251 12.7092 26.9062 12.7092C27.185 12.7092 27.4638 12.6145 27.6771 12.4251C28.1056 12.0446 28.1079 11.4256 27.6821 11.0426Z" fill="#0A0A09"/>
</svg>
