<svg fill="none" height="20" viewBox="0 0 20 20" width="20" xmlns="http://www.w3.org/2000/svg"><path d="m18.25 8.71429c0 .41421.3358.75.75.75s.75-.33579.75-.75zm-17.25 5.14281.75.001v-.001zm.41894 3.522c.24805.3318.71806.3996 1.04978.1515.33173-.248.39955-.718.1515-1.0497zm18.33106-8.66481c0-.41422-.3358-.75-.75-.75-.4143 0-.75.33578-.75.75zm-13.60719 10.28571v-.75h-.00047zm-3.52154-2.5177c-.24724-.3323-.71708-.4013-1.04941-.154-.33234.2472-.40131.717-.15407 1.0494zm16.88243-7.21237c.3069-.27821.3301-.75252.0519-1.05939s-.7525-.33011-1.0594-.0519zm-6.5466 4.92277-.5038-.5557-.005.0047zm-.9779.3368-.0616.7475zm-.9095-.4924.5921-.4602-.0003-.0004zm-2.58303-3.3184.59184-.4607-.00112-.0014zm-1.03918-.4932-.01547-.74988zm-1.01796.5356-.60928-.4373-.00085.0012zm-5.02013 5.7327c-.24089.337-.16301.8054.17396 1.0463.33696.2409.80541.163 1.0463-.1739zm18.3406-7.77951v-2.57143h-1.5v2.57143zm0-2.57143c0-3.25454-2.6383-5.89286-5.8929-5.89286v1.5c2.4262 0 4.3929 1.96675 4.3929 4.39286zm-5.8929-5.89286h-7.71424v1.5h7.71424zm-7.71424 0c-3.25453 0-5.892855 2.63832-5.892855 5.89286h1.499995c0-2.42611 1.96675-4.39286 4.39286-4.39286zm-5.892855 5.89286v7.71424h1.499995v-7.71424zm0 7.71324c-.001701 1.2699.408459 2.5061 1.168935 3.523l1.20128-.8982c-.56614-.7571-.87148-1.6774-.87022-2.6228zm17.999995-5.14181v5.14281h1.5v-5.14281zm0 5.14281c0 2.4262-1.9668 4.3929-4.3929 4.3929v1.5c3.2545 0 5.8929-2.6383 5.8929-5.8929zm-4.3929 4.3929h-7.71429v1.5h7.71429zm-7.71476 0c-1.38722.0009-2.69305-.6547-3.52107-1.7677l-1.20348.8954c1.11126 1.4937 2.86376 2.3735 4.7255 2.3723zm12.35386-10.09136-6.0428 5.47846 1.0074 1.1113 6.0429-5.47847zm-6.0479 5.48306c-.1102.1018-.258.1527-.4075.1404l-.1232 1.4949c.568.0468 1.1296-.1466 1.5483-.5333zm-.4075.1404c-.1495-.0124-.2869-.0868-.379-.2052l-1.1843.9205c.3497.45.8721.7328 1.4401.7796zm-.3793-.2056-2.58299-3.3185-1.18368.9214 2.58297 3.3184zm-2.58411-3.3199c-.39492-.50484-1.00454-.7942-1.64537-.78098l.03093 1.49968c.16864-.0035.32907.0727.433.2055zm-1.64537-.78098c-.64082.01322-1.238.32747-1.61177.84818l1.21855.8747c.09836-.137.25552-.2197.42415-.2232zm-1.61262.84938-4.41 6.1688 1.22026.8724 4.41-6.1689z" fill="#000"/></svg>