<svg width="22" height="22" viewBox="0 0 22 22" fill="none" xmlns="http://www.w3.org/2000/svg">
<rect width="22" height="22" rx="5" fill="#00967D"/>
<path d="M17.9483 16.55L15.1358 9.73751C15.0838 9.6117 14.9957 9.50415 14.8826 9.42846C14.7695 9.35278 14.6364 9.31238 14.5003 9.31238C14.3642 9.31238 14.2312 9.35278 14.118 9.42846C14.0049 9.50415 13.9168 9.6117 13.8648 9.73751L11.0523 16.55C11.0174 16.6336 10.9993 16.7232 10.999 16.8138C10.9988 16.9043 11.0165 16.994 11.051 17.0778C11.0856 17.1615 11.1363 17.2376 11.2004 17.3016C11.2644 17.3656 11.3405 17.4164 11.4242 17.451C11.5079 17.4855 11.5976 17.5032 11.6882 17.503C11.7787 17.5028 11.8684 17.4847 11.9519 17.4497C12.0355 17.4147 12.1113 17.3636 12.175 17.2992C12.2388 17.2349 12.2891 17.1586 12.3233 17.0747L12.8961 15.6875H16.1045L16.6773 17.0747C16.7293 17.2006 16.8174 17.3082 16.9306 17.3839C17.0437 17.4596 17.1768 17.5 17.313 17.5C17.4259 17.4999 17.5372 17.472 17.6368 17.4188C17.7364 17.3655 17.8214 17.2885 17.8841 17.1946C17.9469 17.1006 17.9856 16.9927 17.9967 16.8803C18.0078 16.7679 17.9911 16.6544 17.948 16.55H17.9483ZM13.4639 14.3125L14.5005 11.8016L15.537 14.3125H13.4639Z" fill="#FDFDFD"/>
<path d="M11.37 13.7163C11.4768 13.5687 11.5207 13.3848 11.4921 13.205C11.4634 13.0251 11.3645 12.8639 11.2172 12.7569C11.2109 12.7522 10.7484 12.4091 10.0769 11.6716C11.3159 9.99406 12.0178 8.08562 12.3041 7.1875H13.3125C13.4948 7.1875 13.6697 7.11507 13.7986 6.98614C13.9276 6.8572 14 6.68234 14 6.5C14 6.31766 13.9276 6.1428 13.7986 6.01386C13.6697 5.88493 13.4948 5.8125 13.3125 5.8125H9.6875V5.1875C9.6875 5.00516 9.61507 4.8303 9.48614 4.70136C9.3572 4.57243 9.18234 4.5 9 4.5C8.81766 4.5 8.6428 4.57243 8.51386 4.70136C8.38493 4.8303 8.3125 5.00516 8.3125 5.1875V5.8125H4.6875C4.50516 5.8125 4.3303 5.88493 4.20136 6.01386C4.07243 6.1428 4 6.31766 4 6.5C4 6.68234 4.07243 6.8572 4.20136 6.98614C4.3303 7.11507 4.50516 7.1875 4.6875 7.1875H10.8516C10.5541 8.02969 10.0063 9.35938 9.17063 10.5738C8.18906 9.27125 7.82437 8.42844 7.82156 8.42156C7.7497 8.2555 7.61527 8.12445 7.44743 8.05686C7.27958 7.98926 7.09185 7.99057 6.92496 8.06048C6.75806 8.1304 6.62546 8.26329 6.55591 8.43034C6.48636 8.59738 6.48547 8.78511 6.55344 8.95281C6.57156 8.99594 7.00813 10.0225 8.20531 11.5756C8.23406 11.6128 8.2625 11.6491 8.29094 11.6853C7.06469 13.0712 5.86156 13.9309 5.35812 14.2084C5.19804 14.2958 5.0792 14.4431 5.02775 14.618C4.97629 14.793 4.99644 14.9812 5.08375 15.1412C5.17106 15.3013 5.3184 15.4202 5.49333 15.4716C5.66827 15.5231 5.85648 15.5029 6.01656 15.4156C6.08406 15.3787 7.53531 14.5753 9.1925 12.7409C9.89625 13.4934 10.38 13.8484 10.4091 13.8691C10.4822 13.9222 10.5651 13.9604 10.653 13.9814C10.7408 14.0025 10.832 14.006 10.9213 13.9917C11.0105 13.9775 11.0961 13.9458 11.1731 13.8985C11.2501 13.8512 11.317 13.7891 11.37 13.7159V13.7163Z" fill="#FDFDFD"/>
</svg>
