<svg fill="none" height="18" viewBox="0 0 18 18" width="18" xmlns="http://www.w3.org/2000/svg"><path d="m12.0625 9c0 1.6914-1.3711 3.0625-3.0625 3.0625-1.69137 0-3.0625-1.3711-3.0625-3.0625 0-1.69137 1.37113-3.0625 3.0625-3.0625 1.6914 0 3.0625 1.37113 3.0625 3.0625z" style="fill-rule:evenodd;clip-rule:evenodd;stroke:#f37b1c;stroke-width:1.5;stroke-linecap:round;stroke-linejoin:round"/><path d="m17.1667 9.75065c.4142 0 .75-.33579.75-.75s-.3358-.75-.75-.75zm-2.0417-1.5c-.4142 0-.75.33579-.75.75s.3358.75.75.75zm-12.24996 1.5c.41421 0 .75-.33579.75-.75s-.33579-.75-.75-.75zm-2.041666-1.5c-.414214 0-.75.33579-.75.75s.335786.75.75.75zm8.916666-7.416666c0-.414213-.33579-.7499996-.75-.7499996s-.75.3357866-.75.7499996zm-1.5 2.041666c0 .41421.33579.75.75.75s.75-.33579.75-.75zm1.5 12.25005c0-.4143-.33579-.75-.75-.75s-.75.3357-.75.75zm-1.5 2.0416c0 .4142.33579.75.75.75s.75-.3358.75-.75zm7.05536-13.41132c.2929-.29289.2929-.76777 0-1.06066s-.7678-.29289-1.0607 0zm-2.505.38367c-.2929.2929-.2929.76777 0 1.06066.2929.2929.7677.2929 1.0606 0zm-7.6007 9.72195c.2929-.2928.2929-.7677 0-1.0606-.29289-.2929-.76776-.2929-1.06066 0zm-2.50499.3837c-.29289.2929-.29289.7678 0 1.0607s.76777.2929 1.06066 0zm1.06066-11.54998c-.29289-.29289-.76777-.29289-1.06066 0s-.29289.76777 0 1.06066zm.38367 2.50499c.2929.2929.76777.2929 1.06066 0 .2929-.29289.2929-.76776 0-1.06066zm9.72316 7.60189c-.2929-.2929-.7678-.2929-1.0607 0-.2928.2928-.2928.7677 0 1.0606zm.3825 2.5038c.2929.2929.7678.2929 1.0607 0s.2929-.7678 0-1.0607zm2.922-7.05535h-2.0417v1.5h2.0417zm-14.29166 0h-2.041666v1.5h2.041666zm5.375-7.416666v2.041666h1.5v-2.041666zm0 14.291716v2.0416h1.5v-2.0416zm5.99466-12.43038-1.4443 1.44433 1.0606 1.06066 1.4444-1.44433zm-10.10566 10.10568-1.44433 1.4443 1.06066 1.0607 1.44433-1.4444zm-1.44433-9.04502 1.44433 1.44433 1.06066-1.06066-1.44433-1.44433zm10.10679 10.10682 1.4432 1.4432 1.0607-1.0607-1.4432-1.4431z" fill="#f37b1c"/></svg>