<svg fill="none" height="15" viewBox="0 0 16 15" width="16" xmlns="http://www.w3.org/2000/svg"><path d="m6.44263 4.674c0-.41421-.33579-.75-.75-.75s-.75.33579-.75.75zm4.61397 0c0-.41421-.3358-.75-.75-.75-.41418 0-.74997.33579-.74997.75zm-6.11386-.01288c-.00711.41415.32285.75565.73701.76277.41415.00712.75565-.32285.76277-.73701zm1.50978-.55624c.00712-.41415-.32285-.75565-.737-.76277-.41416-.00712-.75566.32285-.76278.73701zm-.03242.75157c.10076-.40177-.14325-.80916-.54502-.90992s-.80915.14325-.90992.54502zm-.88447.44355.72571.18948.00176-.00703zm-1.42691 1.57589.26038.70335zm-1.68172-.88321c-.34038-.23603-.80766-.15144-1.04369.18895-.23603.34038-.15144.80766.18895 1.04369zm.32259.62401c.00425-.4142-.32808-.75341-.74227-.75765-.4142-.00425-.7534.32808-.75765.74227zm-.80496 5.35931.74995.009.00001-.0013zm.57723 1.4298-.53348.5271zm1.42277.5942v-.75h-.00005zm2.055.75c.41422 0 .75-.3358.75-.75s-.33578-.75-.75-.75zm-4.42924-7.52598c.33967.23707.8072.15389 1.04426-.18578.23707-.33967.15389-.8072-.18578-1.04426zm-.49176-3.13202-.703065-.26115c-.008336.02244-.015592.04527-.021744.06841zm.835-2.248.70307.26115c.00723-.01946.01364-.03921.01923-.05921zm1.109-.844v-.750003l-.00217.000006zm9.95297 0 .0022-.75h-.0022zm1.109.844-.7223.20195c.0056.01995.012.03967.0192.0591zm.835 2.249.7249-.19266c-.0062-.02313-.0134-.04595-.0218-.06839zm-1.3495 1.90122c-.3396.23725-.4225.70483-.1853 1.04436.2373.33954.7049.42246 1.0444.1852zm-8.32047 8.00578c0 .4142.33579.75.75.75.41422 0 .75-.3358.75-.75zm4 0c0 .4142.33579.75.75.75.41417 0 .74997-.3358.74997-.75zm-3.25-.75c-.41421 0-.75.3358-.75.75s.33579.75.75.75zm4 1.5c.41417 0 .74997-.3358.74997-.75s-.3358-.75-.74997-.75zm-.44294-10.06698c.00498.41418.34478.74591.75901.74093.4141-.00499.7459-.34479.7409-.75897zm1.49291-.60004c-.005-.41418-.3448-.74591-.759-.74093-.41417.00499-.7459.34479-.74091.75897zm-.0127.40775c-.1012-.40166-.5089-.64521-.9105-.54399-.4017.10122-.64525.50888-.54403.91053zm-.5703.80627-.72726.18328.00155.00594zm1.4249 1.57586-.2611.70308zm2.5345.35319c.3407-.23546.4261-.70259.1907-1.04338-.2355-.34078-.7026-.42617-1.0434-.19072zm.3236-.62432c-.004-.41419-.343-.74671-.7572-.74269-.4142.00401-.7467.34303-.7427.75723zm-.698 5.37427-.7499.0073v.0017zm-.5772 1.4298-.5335-.5272zm-1.4228.5942.0001-.75h-.0001zm-2.05197-.75c-.41421 0-.75.3358-.75.75s.33579.75.75.75zm-5.057-8.576c0 1.68833 1.36867 3.057 3.057 3.057v-1.5c-.85991 0-1.557-.69709-1.557-1.557zm3.057 3.057c1.68834 0 3.05697-1.36867 3.05697-3.057h-1.49997c0 .85991-.69709 1.557-1.557 1.557zm-1.55711-3.04412.01-.582-1.49978-.02576-.01.582zm-1.47736-.19533-.157.626 1.45494.3649.157-.626zm-.1552.61898c-.12789.48979-.48689.88627-.96161 1.06201l.52075 1.4067c.93414-.34581 1.64056-1.12598 1.8922-2.08977zm-.96161 1.06201c-.47473.17574-1.00536.10859-1.42135-.17986l-.85474 1.23264c.81855.56761 1.8627.69974 2.79684.35392zm-2.59868.42877-.055 5.36699 1.49992.0154.055-5.36701zm-.05498 5.36569c-.00883.735.27701 1.443.79369 1.9659l1.06697-1.0543c-.23486-.2377-.36478-.5595-.36077-.8936zm.79369 1.9659c.51669.5229 1.22121.8172 1.95631.8171l-.00011-1.5c-.33414 0-.65438-.1337-.88923-.3714zm1.95625.8171h2.055v-1.5h-2.055zm-1.51576-8.75602c-.54693-.38172-.79683-1.06467-.62543-1.70924l-1.449619-.38548c-.3334109 1.25379.152692 2.58226 1.216569 3.32476zm-.64717-1.64083.835-2.248-1.40613-.5223-.835005 2.248zm.85423-2.30721c.0488-.17454.20763-.29542.38887-.29594l-.00434-1.499997c-.85251.002468-1.59958.571028-1.82913 1.392057zm.3867-.29594h9.95297v-1.5h-9.95297zm9.95087 0c.1812.00052.34.1214.3888.29595l1.4446-.4039c-.2295-.821019-.9766-1.389579-1.8291-1.392047zm.408.35505.835 2.249 1.4062-.5221-.835-2.249zm.8133 2.18061c.1712.64421-.0784 1.32676-.6247 1.70856l.8591 1.22956c1.0629-.74266 1.5483-2.07034 1.2153-3.32344zm-7.44517 9.71434v-3h-1.5v3zm0-3c0-.1381.11193-.25.25-.25v-1.5c-.9665 0-1.75.7835-1.75 1.75zm.25-.25h2v-1.5h-2zm2 0c.13807 0 .25.1119.25.25h1.49997c0-.9665-.78347-1.75-1.74997-1.75zm.25.25v3h1.49997v-3zm-3.25 3.75h4v-1.5h-4zm5.05697-10.08502-.007-.582-1.49991.01804.007.582zm-1.47423.19229.157.623 1.45453-.36654-.157-.623zm.15852.62895c.25113.96317.95641 1.74321 1.88951 2.08972l.5222-1.40617c-.4742-.1761-.8326-.57251-.9602-1.06199zm1.88951 2.08972c.9331.34652 1.9766.21591 2.7956-.34989l-.8527-1.2341c-.4162.28754-.9465.35392-1.4207.17782zm1.6193-.95967.052 5.36703 1.4999-.0146-.052-5.36697zm.052 5.36873c.004.3341-.1259.6559-.3608.8936l1.067 1.0543c.5167-.5229.8025-1.2309.7937-1.9659zm-.3608.8936c-.2348.2377-.5551.3714-.8892.3714l-.0001 1.5c.7351.0001 1.4396-.2942 1.9563-.8171zm-.8893.3714h-2.05197v1.5h2.05197z" fill="#f37b1c"/></svg>