<svg fill="none" height="21" viewBox="0 0 15 21" width="15" xmlns="http://www.w3.org/2000/svg"><g fill="#fff"><path d="m14.5279 15.7443c-.36-.9332-.9201-1.8397-1.0423-2.802-.1916-1.5076-.0757-3.05319-.1127-4.58218-.0761-3.13712-2.6385-5.5976-5.79701-5.58369-1.50627.0032-2.9507.59988-4.01979 1.66091-1.06937 1.06103-1.67735 2.50072-1.6924 4.00695-.01212 1.14798-.00864 2.29611 0 3.44361.00975 1.4363-.37142 2.7454-1.195206 3.931-.109641.156-.149765.3636-.200476.5621v-.0001c.043607.0626.080246.1297.109223.2002.201728.0605.402906.1326.605059.1338 2.13179.0144 4.26373.0082 6.39756.0082 2.13376 0 4.26414.0069 6.39754-.0082.2181 0 .4354-.0707.6526-.1303.0313-.0435.0652-.085.1014-.1244.0109-.0234.0226-.0464.0347-.0694-.0804-.2158-.1548-.4327-.2375-.6464z"/><path d="m8.82681 17.2174c-.8699-.0047-1.74063.0176-2.60967-.0078-.48369-.014-.67917.1975-.73727.6539-.16105 1.2576.76541 2.3947 2.03151 2.4668 1.22181.0694 2.26055-.9303 2.25509-2.1704-.00348-.7912-.14503-.9383-.9397-.9424z"/><path d="m7.65058 2.26803c.51771.09251.98774.08694.94248-.72125-.03664-.658122-.25746-1.121909-.95682-1.181968-.60395-.051408-.96045.471311-.99401 1.225268-.03511.77321.43578.74272 1.00835.67795z"/></g></svg>