<svg fill="none" height="280" viewBox="0 0 350 280" width="350" xmlns="http://www.w3.org/2000/svg"><path d="m0 0h350v280h-350z" fill="#ffb77e"/><path d="m0 0h350v280h-350z" fill="#f3f3f3"/><path clip-rule="evenodd" d="m289.8 91c5.412 0 9.8 4.3876 9.8 9.8 0 5.412-4.388 9.8-9.8 9.8h-56c5.412 0 9.8 4.388 9.8 9.8s-4.388 9.8-9.8 9.8h30.8c5.412 0 9.8 4.388 9.8 9.8s-4.388 9.8-9.8 9.8h-14.243c-6.825 0-12.357 4.388-12.357 9.8 0 3.608 2.8 6.875 8.4 9.8 5.412 0 9.8 4.388 9.8 9.8s-4.388 9.8-9.8 9.8h-116.2c-5.412 0-9.8-4.388-9.8-9.8s4.388-9.8 9.8-9.8h-54.6c-5.4123 0-9.8-4.388-9.8-9.8s4.3877-9.8 9.8-9.8h56c5.412 0 9.8-4.388 9.8-9.8s-4.388-9.8-9.8-9.8h-35c-5.4123 0-9.8-4.388-9.8-9.8s4.3877-9.8 9.8-9.8h56c-5.412 0-9.8-4.388-9.8-9.8 0-5.4124 4.388-9.8 9.8-9.8zm0 39.2c5.412 0 9.8 4.388 9.8 9.8s-4.388 9.8-9.8 9.8-9.8-4.388-9.8-9.8 4.388-9.8 9.8-9.8z" fill="#ffc79a" fill-rule="evenodd"/><path clip-rule="evenodd" d="m215.141 89.5996 13.022 94.9794 1.17 9.529c.377 3.07-1.806 5.864-4.876 6.241l-81.984 10.066c-3.07.377-5.864-1.806-6.241-4.875l-12.622-102.799c-.188-1.535.903-2.9319 2.438-3.1203.01-.0012.02-.0024.029-.0034l6.802-.763m5.5-.617 6.422-.7203z" fill="#fff" fill-rule="evenodd"/><path d="m216.379 89.4298c-.094-.684-.724-1.1624-1.408-1.0686-.684.0937-1.163.7242-1.069 1.4082zm11.784 95.1492 1.241-.152c-.001-.006-.002-.012-.002-.017zm1.17 9.529 1.241-.152zm-4.876 6.241.153 1.241zm-81.984 10.066.152 1.241zm-6.241-4.875 1.241-.153zm-10.155-105.9227.14 1.2417zm6.941.4787c.686-.076 1.18-.695 1.103-1.3811-.077-.686-.695-1.1798-1.381-1.1028zm5.222-3.1009c-.686.077-1.18.6955-1.103 1.3816.077.686.695 1.1798 1.381 1.1028zm6.7 1.7641c.686-.077 1.18-.6955 1.103-1.3816-.077-.686-.695-1.1798-1.381-1.1028zm68.962-8.9898 13.023 94.9796 2.477-.339-13.023-94.9802zm13.021 94.9626 1.17 9.529 2.481-.305-1.17-9.529zm1.17 9.529c.292 2.384-1.403 4.555-3.788 4.847l.305 2.482c3.755-.461 6.425-3.879 5.964-7.634zm-3.788 4.847-81.984 10.067.304 2.481 81.985-10.066zm-81.984 10.067c-2.385.292-4.555-1.403-4.848-3.788l-2.481.305c.461 3.755 3.879 6.425 7.633 5.964zm-4.848-3.788-12.622-102.798-2.481.304 12.622 102.799zm-12.622-102.798c-.104-.85.5-1.623 1.35-1.728l-.305-2.481c-2.22.2726-3.799 2.293-3.526 4.513zm1.35-1.728c.005 0 .01-.001.016-.002l-.279-2.4839c-.014.0015-.028.0032-.042.0049zm.016-.002 6.801-.763-.278-2.4839-6.802.763zm12.301-1.3795 6.422-.7203-.278-2.4844-6.422.7203z" fill="#f37b1c"/><path clip-rule="evenodd" d="m211.596 95.5768 11.787 86.0772 1.061 8.636c.341 2.782-1.61 5.31-4.359 5.648l-73.419 9.015c-2.749.337-5.255-1.644-5.596-4.426l-11.508-93.722c-.134-1.096.645-2.094 1.742-2.228l9.876-1.213" fill="#ffe1ca" fill-rule="evenodd"/><g stroke-width="2.5"><path d="m150.591 74c0-1.5188 1.231-2.75 2.75-2.75h66.042c.729 0 1.428.2895 1.944.8049l19.758 19.7458c.516.5158.806 1.2155.806 1.9452v89.8541c0 1.519-1.232 2.75-2.75 2.75h-85.8c-1.519 0-2.75-1.231-2.75-2.75z" fill="#fff" stroke="#f37b1c"/><g stroke-linecap="round" stroke-linejoin="round"><path d="m219.341 73.3643v16.236c0 2.3196 1.88 4.2 4.2 4.2h11.107" stroke="#f37b1c"/><path d="m165.2 93.7998h36.4m-36.4 16.8002h60.2m-60.2 18.2h60.2m-60.2 18.2h60.2m-60.2 18.2h36.4" stroke="#ffb77e"/></g></g></svg>