<svg fill="none" height="26" viewBox="0 0 26 26" width="26" xmlns="http://www.w3.org/2000/svg"><g stroke="#9b9b9b" stroke-linecap="round" stroke-linejoin="round" stroke-width="1.5"><path clip-rule="evenodd" d="m17.4867 1.33301h-8.97334c-1.91487.01058-3.74711.78142-5.09362 2.14294-1.34652 1.36152-2.09701 3.20219-2.08638 5.11706v8.81329c-.01063 1.9149.73986 3.7556 2.08638 5.1171 1.34651 1.3615 3.17875 2.1324 5.09362 2.1429h8.97334c1.9149-.0105 3.7471-.7814 5.0936-2.1429s2.097-3.2022 2.0864-5.1171v-8.81329c.0106-1.91487-.7399-3.75554-2.0864-5.11706s-3.1787-2.13236-5.0936-2.14294z" fill-rule="evenodd"/><path d="m14.1401 10.5479h5.5767v5.5583"/><path d="m19.7167 10.5479-7 7.2c-.613.6127-1.5934.6533-2.255.0933l-1.49998-1.275c-.34969-.2972-.80642-.437-1.26252-.3865s-.87121.2867-1.14748.6532c-.065.0866-.12833.175-.20166.255l-3.87667 4.245"/></g></svg>