<svg fill="none" height="24" viewBox="0 0 24 24" width="24" xmlns="http://www.w3.org/2000/svg"><g stroke="#f37b1c" stroke-linecap="round" stroke-linejoin="round" stroke-width="1.5"><path clip-rule="evenodd" d="m17.1368 1.53027h-9.99245c-3.4822 0-5.66535 2.46555-5.66535 5.95467v9.41496c0 3.4891 2.17278 5.9547 5.66535 5.9547h9.99135c3.4937 0 5.6676-2.4656 5.6676-5.9547v-9.41496c0-3.48912-2.1739-5.95467-5.6665-5.95467z" fill-rule="evenodd"/><path clip-rule="evenodd" d="m10.63 12.1924c0 1.1791-.95555 2.1347-2.13473 2.1347s-2.13474-.9556-2.13474-2.1347c0-1.1792.95556-2.1348 2.13474-2.1348h.00346c1.17687.0012 2.13127.9567 2.13127 2.1348z" fill-rule="evenodd"/><path d="m10.6334 12.1924h7.2825v2.1347"/><path d="m14.6559 14.3271v-2.1347"/></g></svg>