<svg fill="none" height="24" viewBox="0 0 24 24" width="24" xmlns="http://www.w3.org/2000/svg"><g fill="#fff"><path d="m13 8c.7956 0 1.5587.31607 2.1213.87868s.8787 1.32572.8787 2.12132c0 .2652.1054.5196.2929.7071s.4419.2929.7071.2929.5196-.1054.7071-.2929.2929-.4419.2929-.7071c0-1.32608-.5268-2.59785-1.4645-3.53553-.9376-.93769-2.2094-1.46447-3.5355-1.46447-.2652 0-.5196.10536-.7071.29289-.1875.18754-.2929.44189-.2929.70711s.1054.51957.2929.70711c.1875.18753.4419.29289.7071.29289z"/><path d="m13 4c1.8565 0 3.637.7375 4.9497 2.05025 1.3128 1.31276 2.0503 3.09324 2.0503 4.94975 0 .2652.1054.5196.2929.7071s.4419.2929.7071.2929.5196-.1054.7071-.2929.2929-.4419.2929-.7071c0-2.38695-.9482-4.67613-2.636-6.36396-1.6879-1.68783-3.9771-2.63604-6.364-2.63604-.2652 0-.5196.10536-.7071.29289-.1875.18754-.2929.44189-.2929.70711s.1054.51957.2929.70711c.1875.18753.4419.29289.7071.29289z"/><path d="m21.75 15.91c-.055-.1605-.15-.3044-.2759-.4181-.126-.1138-.2788-.1935-.4441-.2319l-6-1.37c-.1629-.0369-.3324-.0325-.4931.0129-.1607.0455-.3075.1304-.4269.2471-.14.13-.15.14-.8 1.38-2.1568-.9938-3.88501-2.7291-4.87-4.89 1.27-.64 1.28-.64 1.41-.79.11671-.11944.2016-.26621.2471-.42692.0454-.1607.0498-.33022.0129-.49308l-1.37-5.93c-.03835-.1653-.11814-.31813-.23186-.44409-.11371-.12596-.25761-.22091-.41814-.27591-.23353-.08341-.47469-.1437-.72-.18-.25275-.0586-.51067-.0921-.77-.1-1.22 0-2.39002.48464-3.25269 1.34731s-1.34731 2.03269-1.34731 3.25269c.00529 4.0827 1.62949 7.9967 4.5164 10.8836s6.8009 4.5111 10.8836 4.5164c.6041 0 1.2022-.119 1.7603-.3502.5581-.2311 1.0652-.57 1.4924-.9971.4271-.4272.766-.9343.9971-1.4924.2312-.5581.3502-1.1562.3502-1.7603.0003-.2545-.0198-.5087-.06-.76-.042-.2484-.1056-.4926-.19-.73zm-4.35 4.09c-3.5531-.0026-6.9599-1.4153-9.47231-3.9277s-3.92504-5.9192-3.92769-9.4723c.00263-.68875.27741-1.34854.76443-1.83557.48703-.48702 1.14682-.7618 1.83557-.76443h.33l1.07 4.64-.54.28c-.86.45-1.54.81-1.18 1.59.58622 1.6596 1.53477 3.1677 2.77674 4.4149 1.24196 1.2471 2.74616 2.202 4.40326 2.7951.84.34 1.17-.29 1.62-1.16l.29-.55 4.63 1.06v.33c-.0026.6888-.2774 1.3485-.7644 1.8356-.4871.487-1.1468.7618-1.8356.7644z"/></g></svg>