<svg fill="none" height="25" viewBox="0 0 26 25" width="26" xmlns="http://www.w3.org/2000/svg"><path d="m24.5866 19.5759c0 .415-.0922.8415-.2882 1.2565-.1959.4149-.4495.8068-.7838 1.1757-.5648.6224-1.1872 1.0719-1.8904 1.3601-.6916.2882-1.4408.438-2.2477.438-1.1757 0-2.4321-.2766-3.7576-.8414-1.3256-.5648-2.6512-1.3256-3.9652-2.2823-1.3256-.9682-2.58198-2.0402-3.78075-3.2275-1.18725-1.1987-2.25923-2.4551-3.21594-3.7692-.94518-1.314-1.70594-2.628-2.25922-3.93056-.55328-1.31403-.82992-2.57044-.82992-3.76921 0-.78381.13832-1.53305.41496-2.22464.27664-.70313.71465-1.34862 1.32556-1.92496.73771-.72617 1.54458-1.0835 2.39755-1.0835.32274 0 .64549.06916.93366.207479.29969.138321.5648.345801.77228.645491l2.67422 3.76922c.2074.28816.3573.55328.461.80686.1038.24206.1614.48412.1614.70313 0 .27664-.0807.55328-.2421.81839-.1498.26511-.3688.54175-.64545.81839l-.87602.91061c-.1268.12679-.18443.27664-.18443.46106 0 .09222.01153.17294.03458.26514.03458.0922.06916.1613.09221.2305.20748.3804.56481.876 1.07198 1.4754.51873.5994 1.07193 1.2103 1.67133 1.8212.6225.6109 1.2219 1.1757 1.8328 1.6944.5994.5072 1.095.853 1.4869 1.0605.0576.0231.1268.0576.2075.0922.0922.0346.1844.0461.2882.0461.1959 0 .3458-.0691.4725-.1959l.8761-.8645c.2881-.2882.5648-.5072.8299-.6455.2651-.1614.5302-.2421.8184-.2421.219 0 .4495.0461.7031.1499.2536.1037.5187.2535.8069.4495l3.8153 2.7088c.2997.2074.5072.4495.634.7377.1152.2881.1844.5763.1844.899z" stroke="#f37b1c" stroke-miterlimit="10" stroke-width="1.5"/></svg>