<svg fill="none" height="16" viewBox="0 0 22 16" width="22" xmlns="http://www.w3.org/2000/svg"><path d="m7.00008.25c-.41421 0-.75.335786-.75.75 0 .41421.33579.75.75.75zm13.33332 1.5c.4142 0 .75-.33579.75-.75 0-.414214-.3358-.75-.75-.75zm-18.66665-1.5c-.41422 0-.750002.335786-.750002.75 0 .41421.335782.75.750002.75zm1.33333 1.5c.41421 0 .75-.33579.75-.75 0-.414214-.33579-.75-.75-.75zm-1.33333 5.16667c-.41422 0-.750002.33578-.750002.75 0 .41421.335782.75.750002.75zm1.33333 1.5c.41421 0 .75-.33579.75-.75 0-.41422-.33579-.75-.75-.75zm-1.33333 5.16663c-.41422 0-.750002.3358-.750002.75s.335782.75.750002.75zm1.33333 1.5c.41421 0 .75-.3358.75-.75s-.33579-.75-.75-.75zm4-8.16663c-.41421 0-.75.33578-.75.75 0 .41421.33579.75.75.75zm13.33332 1.5c.4142 0 .75-.33579.75-.75 0-.41422-.3358-.75-.75-.75zm-13.33332 5.16663c-.41421 0-.75.3358-.75.75s.33579.75.75.75zm13.33332 1.5c.4142 0 .75-.3358.75-.75s-.3358-.75-.75-.75zm-13.33332-13.3333h13.33332v-1.5h-13.33332zm-5.33333 0h1.33333v-1.5h-1.33333zm0 6.66667h1.33333v-1.5h-1.33333zm0 6.66663h1.33333v-1.5h-1.33333zm5.33333-6.66663h13.33332v-1.5h-13.33332zm0 6.66663h13.33332v-1.5h-13.33332z" fill="#fff"/></svg>