<svg fill="none" height="26" viewBox="0 0 22 26" width="22" xmlns="http://www.w3.org/2000/svg"><path d="m11.1408 25.0722v-.5zm-10.1408-5.4422-.499943-.0076-.002335.1549.085614.1291zm20.2817 0 .4167.2764.0856-.1291-.0024-.1549zm-10.1409-18.05773c2.5295 0 4.5705 2.04093 4.5705 4.57042h1c0-3.08178-2.4887-5.570424-5.5705-5.570424zm4.5705 4.57042c0 2.52949-2.041 4.57041-4.5705 4.57041v1c3.0818 0 5.5705-2.48864 5.5705-5.57041zm-4.5705 4.57041c-2.52946 0-4.57039-2.04092-4.57039-4.57041h-1c0 3.08177 2.48865 5.57041 5.57039 5.57041zm-4.57039-4.57041c0-2.52949 2.04093-4.57042 4.57039-4.57042v-1.000004c-3.08174 0-5.57039 2.488644-5.57039 5.570424zm4.57039 18.42951c-3.91109.0001-7.56215-1.9593-9.72414-5.2186l-.833324.5528c2.347264 3.5385 6.311204 5.6659 10.557464 5.6658zm-9.64086-4.9347c.00997-.6612.34495-1.2869.97251-1.875.62966-.5901 1.51977-1.1076 2.54231-1.5353 2.04712-.8562 4.50421-1.3028 6.12604-1.3028v-1c-1.75836 0-4.34635.4745-6.5119 1.3802-1.0838.4533-2.09193 1.027-2.84025 1.7282-.75045.7033-1.27321 1.5692-1.288593 2.5896zm9.64086-4.7131c1.6133 0 4.0705.4465 6.12 1.3028 1.0237.4278 1.9154.9454 2.5464 1.5356.629.5883.9646 1.2139.9745 1.8747l.9999-.0151c-.0154-1.0208-.5396-1.8868-1.2913-2.5899-.7496-.7011-1.7593-1.2747-2.844-1.7279-2.1674-.9057-4.7553-1.3802-6.5055-1.3802zm9.7242 4.4292c-2.162 3.2593-5.813 5.2187-9.7242 5.2186v1c4.2464.0001 8.2103-2.1273 10.5576-5.6658z" fill="#9b9b9b"/></svg>