<svg width="24" height="24" viewBox="0 0 24 24" fill="none" xmlns="http://www.w3.org/2000/svg">
<path d="M23.9392 20.5649C23.8336 20.0581 23.3371 19.7327 22.8303 19.8382C22.3233 19.9438 21.998 20.4402 22.1035 20.9471C22.1643 21.2391 22.092 21.5384 21.905 21.7683C21.7966 21.9014 21.5552 22.1248 21.155 22.1248H16.9219C16.4041 22.1248 15.9844 22.5445 15.9844 23.0623C15.9844 23.5801 16.4041 23.9998 16.9219 23.9998H21.155C22.0142 23.9998 22.8177 23.6176 23.3596 22.9513C23.9042 22.2816 24.1155 21.4118 23.9392 20.5649Z" fill="#0A0A09"/>
<path d="M12.9518 12.786C16.0318 13.0697 18.8336 14.7205 20.5785 17.323C20.8668 17.753 21.4493 17.868 21.8793 17.5796C22.3093 17.2912 22.4242 16.7088 22.1359 16.2788C20.5975 13.9845 18.3636 12.3165 15.8165 11.4782C17.3688 10.3144 18.375 8.46 18.375 6.375C18.375 2.8598 15.5151 0 12 0C8.48483 0 5.62498 2.8598 5.62498 6.375C5.62498 8.46136 6.63242 10.3168 8.18637 11.4805C6.76273 11.9491 5.42679 12.678 4.25764 13.6396C2.11395 15.4029 0.623466 17.8625 0.0608257 20.5651C-0.115518 21.412 0.0957476 22.2817 0.640341 22.9515C1.18222 23.6178 1.98579 24 2.84497 24H6.93748C7.45526 24 7.87498 23.5803 7.87498 23.0625C7.87498 22.5447 7.45526 22.125 6.93748 22.125H2.84487C2.44465 22.125 2.20325 21.9016 2.09492 21.7685C1.90794 21.5385 1.83556 21.2393 1.89636 20.9473C2.81436 16.5378 6.53605 13.2503 10.952 12.7964L9.16226 20.939C9.09369 21.2513 9.18894 21.5771 9.41501 21.8032L11.2901 23.6785C11.4659 23.8544 11.7044 23.9531 11.9531 23.9531C12.2018 23.9531 12.4402 23.8543 12.6161 23.6785L14.491 21.8032C14.717 21.577 14.8123 21.2513 14.7437 20.9391L12.9518 12.786ZM7.49998 6.375C7.49998 3.89367 9.51865 1.875 12 1.875C14.4813 1.875 16.5 3.89367 16.5 6.375C16.5 8.78142 14.6013 10.7526 12.2233 10.8695C12.149 10.8681 12.0746 10.8672 12 10.8672C11.9268 10.8672 11.8537 10.8683 11.7807 10.8696C9.40081 10.7548 7.49998 8.78278 7.49998 6.375ZM11.9531 21.6897L11.1038 20.8403L11.9531 16.9766L12.8022 20.8403L11.9531 21.6897Z" fill="#0A0A09"/>
</svg>
