<svg width="24" height="24" viewBox="0 0 24 24" fill="none" xmlns="http://www.w3.org/2000/svg">
<path d="M19.2657 15.0484C18.7479 15.0484 18.3282 15.4681 18.3282 15.9859V18.3765H5.62502V1.87645H6.14065C6.65843 1.87645 7.07815 1.45673 7.07815 0.938945C7.07815 0.421162 6.65843 0.00144167 6.14065 0.00144167H2.81251C1.26169 0.00144167 0 1.26313 0 2.81395V21.189C0 22.7398 1.26169 24.0015 2.81251 24.0015H19.2657C19.7835 24.0015 20.2032 23.5818 20.2032 23.064C20.2032 22.5462 19.7835 22.1265 19.2657 22.1265H2.81251C2.29557 22.1265 1.87501 21.706 1.87501 21.189C1.87501 20.6721 2.29557 20.2515 2.81251 20.2515H19.2657C19.7835 20.2515 20.2032 19.8318 20.2032 19.314V15.9859C20.2032 15.4681 19.7834 15.0484 19.2657 15.0484ZM1.87501 18.5378V2.81395C1.87501 2.29701 2.29557 1.87645 2.81251 1.87645H3.75001V18.3765H2.81251C2.48382 18.3765 2.1684 18.4337 1.87501 18.5378ZM23.9431 3.35508C23.7992 2.8478 23.3893 2.43112 22.8036 2.2215L17.4152 0.279224C16.3743 -0.0932931 15.1805 -0.09334 14.1358 0.280677L8.79224 2.22079C8.05297 2.4854 7.59378 3.07706 7.59378 3.76491C7.59378 4.45276 8.05302 5.04441 8.79214 5.30898L10.7872 6.02331C10.6117 6.56125 10.2656 7.95611 10.2656 10.5952C10.2656 11.0838 10.6409 11.4905 11.1279 11.5297C11.1484 11.5313 13.1524 11.705 15.1886 12.9111C15.3582 13.0516 15.5712 13.1266 15.7878 13.1266C15.7908 13.1266 15.7938 13.1263 15.7969 13.1263C15.7999 13.1264 15.8029 13.1266 15.806 13.1266C16.0225 13.1266 16.2354 13.0516 16.4049 12.9112C18.4238 11.7161 20.4474 11.5313 20.4658 11.5297C20.9528 11.4906 21.3281 11.0838 21.3281 10.5952C21.3281 7.94857 20.9801 6.55328 20.805 6.01867L22.125 5.54945V7.5483C22.125 8.06608 22.5447 8.4858 23.0625 8.4858C23.5803 8.4858 24 8.06608 24 7.5483V3.67425C24.0001 3.56199 23.9793 3.45483 23.9431 3.35508ZM19.4411 9.7917C18.5894 9.95778 17.2202 10.3227 15.7969 11.1004C14.3737 10.3227 13.0045 9.95778 12.1529 9.7917C12.2097 7.96675 12.4506 6.99564 12.5542 6.65594L14.1398 7.22364H14.1399C14.6605 7.41002 15.2194 7.50316 15.778 7.50316C16.3362 7.50316 16.8941 7.41021 17.4132 7.22435L19.038 6.6468C19.1363 6.96541 19.3834 7.93671 19.4411 9.7917ZM16.7832 5.45837C16.1534 5.68389 15.4015 5.68384 14.7718 5.45837H14.7718L10.0376 3.76336L14.7718 2.04454C15.4015 1.81907 16.1535 1.81912 16.7813 2.04384L21.5518 3.76336L16.7832 5.45837Z" fill="#0A0A09"/>
</svg>
