<svg fill="none" height="21" viewBox="0 0 17 21" width="17" xmlns="http://www.w3.org/2000/svg"><g style="fill-rule:evenodd;clip-rule:evenodd;stroke:#000;stroke-width:1.5;stroke-linecap:round;stroke-linejoin:round"><path d="m15.9337 17.6087c-.0424-1.2586-1.0896-2.2487-2.3486-2.2204s-2.2607 1.0644-2.2466 2.3236c.0142 1.2592 1.039 2.2725 2.2983 2.2725 1.29-.0223 2.3181-1.0856 2.2969-2.3757z"/><path d="m7.89275 10.4815c.03176 1.9357-1.51116 3.5309-3.44681 3.5636-1.93512-.0335-3.477217-1.6284-3.44546-3.5636-.031757-1.93512 1.51034-3.53007 3.44546-3.56353 1.93565.03272 3.47857 1.62789 3.44681 3.56353z"/><path d="m14.7849 3.35418c.0203.83419-.4131 1.61383-1.1324 2.03689-.7192.42306-1.6112.42306-2.3305 0-.7192-.42306-1.1526-1.2027-1.1324-2.03689-.0202-.83418.4132-1.61383 1.1324-2.03689.7193-.423054 1.6113-.423054 2.3305 0 .7193.42306 1.1527 1.20271 1.1324 2.03689z"/></g><path d="m11.4788 16.6479c.3379.2396.8061.1598 1.0456-.1781.2396-.3379.1598-.8061-.1781-1.0456zm-3.88394-4.5918c-.33793-.2395-.80605-.1598-1.04559.1781-.23954.338-.15979.8061.17814 1.0456zm3.67634-6.57889c.3024-.28307.3181-.75769.035-1.06008s-.7577-.31805-1.0601-.03497zm-4.61716 2.2676c-.30239.28307-.31804.75769-.03497 1.06008.28308.30239.7577.31805 1.06009.03497zm5.69226 7.67939-4.75144-3.3681-.86745 1.2237 4.75139 3.3681zm-2.1002-11.04204-3.59206 3.36265 1.02512 1.09505 3.59204-3.36265z" fill="#000"/></svg>