<svg fill="none" height="26" viewBox="0 0 26 26" width="26" xmlns="http://www.w3.org/2000/svg"><path d="m1 3.4h-.5v.5h.5zm2.4 0 .45176-.21427-.13552-.28573h-.31624zm4.32 9.108.43792.2413.12356-.2242-.10972-.2314zm-1.62 2.94.43417.2481.00375-.0068zm16.5 3.552v.5h.5v-.5zm0-2.4h.5v-.5h-.5zm-14.196-.3-.48507-.1213-.01493.0597v.0616zm.036-.144-.43771-.2417-.03154.0571-.01582.0633zm1.08-1.956v-.5h-.29508l-.14263.2583zm11.04-1.236-.4378-.2415-.0006.0011zm4.296-7.788.4378.24151.002-.00372zm-1.056-1.776.0012-.5h-.0012zm-17.748 0-.45251.21268.13504.28732h.31747zm-1.128-2.4.45251-.212681-.13504-.287319h-.31747zm-3.924 0v-.5h-.5v.5zm7.20001 18.7c-1.5994 0-2.888 1.3071-2.888 2.9h1c0-1.0471.8474-1.9 1.888-1.9zm-2.888 2.9c0 1.5929 1.2886 2.9 2.888 2.9v-1c-1.0406 0-1.888-.8529-1.888-1.9zm2.888 2.9c1.59614 0 2.89999-1.3039 2.89999-2.9h-1c0 1.0439-.85613 1.9-1.89999 1.9zm2.89999-2.9c0-1.5961-1.30385-2.9-2.89999-2.9v1c1.04386 0 1.89999.8561 1.89999 1.9zm-10.6-21.6v2.4h1v-2.4zm.5 2.9h2.4v-1h-2.4zm1.94824-.28573 4.32 9.10803.90352-.4286-4.32-9.10797zm4.33384 8.65243-1.62 2.94.87584.4826 1.62-2.94zm-1.6162 2.9332c-.23581.4127-.36588.8944-.36588 1.4001h1c0-.3343.08593-.6446.23412-.9039zm-.36588 1.4001c0 1.5961 1.30386 2.9 2.9 2.9v-1c-1.04386 0-1.9-.8561-1.9-1.9zm2.9 2.9h14.4v-1h-14.4zm14.9-.5v-2.4h-1v2.4zm-.5-2.9h-13.896v1h13.896zm-13.896 0c.10814 0 .2.0919.2.2h-1c0 .4441.35586.8.8.8zm.18507.3213.036-.144-.97014-.2426-.036.144zm-.01136-.0236 1.08-1.956-.87542-.4834-1.08 1.956zm.64229-1.6977h8.94v-1h-8.94zm8.94 0c1.0857 0 2.0441-.5942 2.5384-1.4956l-.8768-.4808c-.3217.5866-.9472.9764-1.6616.9764zm2.5378-1.4945 4.296-7.788-.8756-.483-4.296 7.788zm4.298-7.79171c.2851-.5273.2721-1.16563-.0343-1.68086l-.8595.51107c.1265.2128.1319.47643.0142.69421zm-.0343-1.68086c-.3063-.51523-.8609-.83155-1.4603-.83293l-.0024 1c.2476.00057.4767.13121.6032.344zm-1.4615-.83293h-17.748v1h17.748zm-17.29549.28732-1.128-2.400001-.90502.425361 1.128 2.4zm-1.58051-2.68732h-3.924v1h3.924zm15.276 19.2c-1.5994 0-2.888 1.3071-2.888 2.9h1c0-1.0471.8474-1.9 1.888-1.9zm-2.888 2.9c0 1.5929 1.2886 2.9 2.888 2.9v-1c-1.0406 0-1.888-.8529-1.888-1.9zm2.888 2.9c1.5962 0 2.9-1.3039 2.9-2.9h-1c0 1.0439-.8561 1.9-1.9 1.9zm2.9-2.9c0-1.5961-1.3038-2.9-2.9-2.9v1c1.0439 0 1.9.8561 1.9 1.9z" fill="#9b9b9b"/></svg>