<svg fill="none" height="28" viewBox="0 0 29 28" width="29" xmlns="http://www.w3.org/2000/svg"><path d="m27.5908 24.6699.0025.0233.0046.023c.0286.1412.0449.2794.0449.418 0 1.0928-.841 1.9394-1.8333 1.9394h-11.6667-11.66664c-.99232 0-1.833338-.8466-1.833338-1.9394 0-.1386.016315-.2768.044889-.418l.004662-.023.002482-.0233 2.278505-21.43743.0028-.02634v-.0265c0-1.0928.84102-1.9394 1.83333-1.9394h9.33331 9.3334c.9923 0 1.8333.8466 1.8333 1.9394v.0265l.0028.02634zm-7.1146-16.61148v-1.01512c.6986-.39719 1.1666-1.16104 1.1666-2.03413 0-1.26487-.9871-2.32954-2.25-2.32954-1.2628 0-2.25 1.06467-2.25 2.32954v3.04925c0 1.76241-1.3672 3.15908-3 3.15908s-3-1.39667-3-3.15908v-3.04925c0-1.26487-.9871-2.32954-2.24998-2.32954-1.26285 0-2.25 1.06467-2.25 2.32954 0 .87309.46806 1.63694 1.16667 2.03413v1.01512c0 3.61768 2.82001 6.59848 6.33331 6.59848 3.5134 0 6.3334-2.9808 6.3334-6.59848z" stroke="#9b9b9b"/></svg>