<svg width="14" height="13" viewBox="0 0 14 13" fill="none" xmlns="http://www.w3.org/2000/svg">
<path d="M6.76221 0.485124C6.9107 0.0219855 7.56599 0.0219862 7.71447 0.485124L8.89921 4.18051C8.96556 4.38747 9.158 4.52786 9.37534 4.52786H13.2233C13.7061 4.52786 13.9085 5.14426 13.5198 5.43049L10.3952 7.7312C10.2223 7.85851 10.15 8.082 10.2156 8.28647L11.4063 12.0006C11.5544 12.4624 11.0243 12.8434 10.6337 12.5559L7.53481 10.274C7.35849 10.1442 7.1182 10.1442 6.94188 10.274L3.84296 12.5559C3.45243 12.8434 2.9223 12.4624 3.07037 12.0006L4.26111 8.28647C4.32666 8.082 4.25435 7.85851 4.08145 7.7312L0.956904 5.43049C0.568177 5.14426 0.770632 4.52786 1.25337 4.52786H5.10135C5.31868 4.52786 5.51113 4.38747 5.57748 4.18051L6.76221 0.485124Z" fill="#FFA94B"/>
</svg>
